<?xml version="1.0" encoding="UTF-8" standalone="no"?>
<!-- Created with Inkscape (http://www.inkscape.org/) -->

<svg
   xmlns:dc="http://purl.org/dc/elements/1.1/"
   xmlns:cc="http://creativecommons.org/ns#"
   xmlns:rdf="http://www.w3.org/1999/02/22-rdf-syntax-ns#"
   xmlns:svg="http://www.w3.org/2000/svg"
   xmlns="http://www.w3.org/2000/svg"
   xmlns:sodipodi="http://sodipodi.sourceforge.net/DTD/sodipodi-0.dtd"
   xmlns:inkscape="http://www.inkscape.org/namespaces/inkscape"
   width="210mm"
   height="297mm"
   viewBox="0 0 210 297"
   version="1.1"
   id="svg37"
   inkscape:version="0.92.2 5c3e80d, 2017-08-06"
   sodipodi:docname="x_eyes.svg">
  <defs
     id="defs31" />
  <sodipodi:namedview
     id="base"
     pagecolor="#ffffff"
     bordercolor="#666666"
     borderopacity="1.0"
     inkscape:pageopacity="0.0"
     inkscape:pageshadow="2"
     inkscape:zoom="0.5"
     inkscape:cx="319.53319"
     inkscape:cy="607.63781"
     inkscape:document-units="mm"
     inkscape:current-layer="layer1"
     showgrid="false"
     inkscape:window-width="1280"
     inkscape:window-height="707"
     inkscape:window-x="-2"
     inkscape:window-y="0"
     inkscape:window-maximized="0" />
  <metadata
     id="metadata34">
    <rdf:RDF>
      <cc:Work
         rdf:about="">
        <dc:format>image/svg+xml</dc:format>
        <dc:type
           rdf:resource="http://purl.org/dc/dcmitype/StillImage" />
        <dc:title />
      </cc:Work>
    </rdf:RDF>
  </metadata>
  <g
     inkscape:label="Layer 1"
     inkscape:groupmode="layer"
     id="layer1">
    <path
       id="rect89"
       style="fill:#1f1c24;stroke-width:0.20189007"
       d="m -119.79562,201.01808 h 24.827225 v 2.97522 h -24.827225 z m -10.04816,-22.36963 h 24.82723 v 2.97522 h -24.82723 z m -9.18277,63.66855 a 21.885619,30.538911 26.409095 0 1 -27.61007,11.67155 21.885619,30.538911 26.409095 0 1 -11.29101,-26.16383 21.885619,30.538911 26.409095 0 1 20.28329,-28.64944 m 93.020859,-44.85413 a 42.501004,84.612224 45 0 0 -81.494959,9.98291 42.501004,84.612224 45 0 0 -48.2093,94.15895 42.501004,84.612224 45 0 0 81.49496,-9.98292 42.501004,84.612224 45 0 0 48.209299,-94.15894 z m -9.027106,6.97487 a 36.447924,73.321166 45.179673 0 1 -41.961193,81.22068 36.447924,73.321166 45.179673 0 1 -70.49176,9.06979 36.447924,73.321166 45.179673 0 1 41.9612,-81.22068 36.447924,73.321166 45.179673 0 1 70.491753,-9.06979 z m -38.241933,2.93904 -12.86125,30.26075 1.78594,1.54125 12.86125,-30.26075 z m 10.04817,22.36963 -12.86125,30.26075 1.78594,1.54125 12.86125,-30.26075 z"
       transform="matrix(0.77771679,-0.62861482,0.96861326,0.24857262,0,0)" />
  </g>
</svg>
