<svg version="1.1" xmlns="http://www.w3.org/2000/svg" xmlns:xlink="http://www.w3.org/1999/xlink">
<defs>
<symbol id="icon-pause" viewBox="0 0 32 32">
<title>pause</title>
<path d="M1.528 31.578c-1.54-0.759-1.528-0.64-1.528-15.555 0-14.982-0.017-14.812 1.568-15.565 0.789-0.374 2.281-0.418 14.414-0.418 15.1 0 14.938-0.017 15.638 1.658 0.506 1.211 0.506 27.437 0 28.648-0.701 1.676-0.533 1.659-15.676 1.652-12.149-0.005-13.661-0.049-14.416-0.421zM13.122 23.65l0.613-0.613v-14.030l-0.613-0.613c-0.794-0.794-1.891-0.798-2.807-0.010l-0.701 0.603v14.071l0.701 0.603c0.916 0.788 2.013 0.784 2.807-0.010zM21.649 23.661l0.701-0.603v-14.071l-0.701-0.603c-0.916-0.788-2.013-0.784-2.807 0.010l-0.613 0.613v14.030l0.613 0.613c0.794 0.794 1.891 0.798 2.807 0.010z"></path>
</symbol>
<symbol id="icon-rewind" viewBox="0 0 32 32">
<title>rewind</title>
<path d="M1.528 31.578c-1.54-0.759-1.528-0.64-1.528-15.555 0-14.982-0.017-14.812 1.568-15.565 0.789-0.374 2.281-0.418 14.414-0.418 15.1 0 14.938-0.017 15.638 1.658 0.506 1.211 0.506 27.437 0 28.648-0.701 1.676-0.533 1.659-15.676 1.652-12.149-0.005-13.661-0.049-14.416-0.421zM16.155 23.452c0.111-0.172 0.258-1.359 0.327-2.639l0.125-2.327 3.66 2.639c3.944 2.844 4.77 3.161 5.212 1.999 0.318-0.838 0.318-13.364 0-14.202-0.442-1.162-1.268-0.846-5.212 1.999l-3.66 2.639-0.125-2.327c-0.139-2.595-0.273-2.951-1.106-2.951-0.75 0-9.626 6.27-10.067 7.11-0.274 0.523-0.274 0.738 0 1.262 0.44 0.841 9.317 7.11 10.067 7.11 0.317 0 0.668-0.14 0.779-0.312z"></path>
</symbol>
<symbol id="icon-FF" viewBox="0 0 32 32">
<title>FF</title>
<path d="M1.528 31.578c-1.54-0.759-1.528-0.64-1.528-15.555 0-14.982-0.017-14.812 1.568-15.565 0.789-0.374 2.281-0.418 14.414-0.418 15.1 0 14.938-0.017 15.638 1.658 0.506 1.211 0.506 27.437 0 28.648-0.701 1.676-0.533 1.659-15.676 1.652-12.149-0.005-13.661-0.049-14.416-0.421zM12.32 21.142c2.029-1.442 3.74-2.622 3.801-2.622s0.111 1.045 0.111 2.322c0 3.855 0.365 3.849 5.889-0.090 5.017-3.577 5.348-3.87 5.348-4.73s-0.332-1.153-5.348-4.73c-5.524-3.939-5.889-3.944-5.889-0.090 0 1.277-0.050 2.322-0.111 2.322s-1.771-1.18-3.801-2.622c-3.601-2.559-4.415-2.935-5.028-2.322-0.428 0.428-0.428 14.456 0 14.883 0.613 0.613 1.427 0.237 5.028-2.322z"></path>
</symbol>
<symbol id="icon-play" viewBox="0 0 32 32">
<title>play</title>
<path d="M1.528 31.578c-1.54-0.759-1.528-0.64-1.528-15.555 0-14.982-0.017-14.812 1.568-15.565 0.789-0.374 2.281-0.418 14.414-0.418 15.1 0 14.938-0.017 15.638 1.658 0.506 1.211 0.506 27.437 0 28.648-0.701 1.676-0.533 1.659-15.676 1.652-12.149-0.005-13.661-0.049-14.416-0.421zM17.274 20.215c2.725-1.786 4.998-3.446 5.082-3.712 0.084-0.264 0.084-0.697 0-0.961-0.148-0.465-9.495-6.779-10.516-7.103-0.285-0.090-0.716-0.006-0.99 0.196-0.462 0.338-0.486 0.707-0.486 7.388s0.024 7.050 0.486 7.388c0.275 0.201 0.706 0.286 0.99 0.196 0.277-0.088 2.722-1.614 5.434-3.391z"></path>
</symbol>
<symbol id="icon-radio" viewBox="0 0 32 32">
<title>radio</title>
<path d="M1.578 31.602c-1.454-0.717-1.578-1.354-1.578-8.086 0-4.985 0.069-6.187 0.394-6.871 0.61-1.285 1.601-1.617 4.825-1.617h2.771v-1.767c0-1.62 0.061-1.828 0.73-2.497l0.73-0.73h13.060l0.73 0.73c0.669 0.669 0.73 0.877 0.73 2.497v1.767h2.771c3.224 0 4.215 0.332 4.825 1.617 0.581 1.224 0.581 12.519 0 13.743-0.779 1.641-0.558 1.618-15.623 1.612-11.811-0.005-13.672-0.056-14.363-0.397zM8.95 25.918c0.844-0.844 0.912-1.023 0.912-2.386 0-1.227-0.104-1.585-0.624-2.142-1.335-1.429-2.988-1.753-4.434-0.872-2.145 1.308-2.389 3.959-0.521 5.65 0.818 0.741 1.165 0.842 2.544 0.746 1.002-0.070 1.367-0.241 2.122-0.997zM5.493 24.515c-0.275-0.275-0.499-0.724-0.499-0.999 0-0.643 0.855-1.498 1.498-1.498s1.498 0.855 1.498 1.498c0 0.275-0.225 0.724-0.499 0.999s-0.724 0.499-0.999 0.499c-0.275 0-0.724-0.225-0.999-0.499zM18.823 26.449c0.2-0.318 0.2-0.556 0-0.874-0.225-0.358-0.712-0.45-2.708-0.509-2.512-0.074-3.131 0.109-3.131 0.926 0 0.87 0.533 1.037 3.090 0.964 2.036-0.058 2.523-0.148 2.75-0.507zM27.925 25.918c0.844-0.844 0.912-1.023 0.912-2.386 0-1.227-0.104-1.585-0.624-2.142-1.335-1.429-2.988-1.753-4.434-0.872-2.145 1.308-2.389 3.959-0.521 5.65 0.818 0.741 1.165 0.842 2.544 0.746 1.002-0.070 1.367-0.241 2.122-0.997zM24.468 24.515c-0.275-0.275-0.499-0.724-0.499-0.999s0.225-0.724 0.499-0.999c0.275-0.275 0.724-0.499 0.999-0.499s0.724 0.225 0.999 0.499c0.275 0.275 0.499 0.724 0.499 0.999s-0.225 0.724-0.499 0.999c-0.275 0.275-0.724 0.499-0.999 0.499s-0.724-0.225-0.999-0.499zM18.519 22.603c0.569-0.515 0.589-1.523 0.043-2.126-0.576-0.636-4.431-0.669-5.122-0.043-0.569 0.515-0.589 1.523-0.043 2.126 0.576 0.636 4.431 0.669 5.122 0.043zM20.973 14.028v-0.999h-9.987v1.997h9.987z"></path>
</symbol>
<symbol id="icon-ipod" viewBox="0 0 32 32">
<title>ipod</title>
<path d="M20.5 16v-16h-20.5v32h20.5zM8.852 29.174c-4.235-1.098-5.77-6.303-2.792-9.465 2.221-2.36 6.16-2.36 8.381 0 2.933 3.115 1.453 8.337-2.679 9.451-1.469 0.396-1.437 0.396-2.91 0.014zM11.908 26.52c1.185-0.723 1.592-1.467 1.592-2.917 0-3.292-3.917-4.57-5.978-1.949-0.378 0.481-0.522 1.024-0.522 1.971s0.144 1.49 0.522 1.971c1.105 1.405 2.957 1.796 4.386 0.924zM2.75 8.625v-5.375h15v10.75h-15z"></path>
</symbol>
<symbol id="icon-RnR" viewBox="0 0 32 32">
<title>RnR</title>
<path d="M11.331 31.203c-0.29-0.438-0.805-1.275-1.145-1.859-1.504-2.587-2.103-3.11-5.883-5.135-2.116-1.133-3.321-1.885-3.759-2.345-0.729-0.764-0.724-2.056 0.010-2.874 0.436-0.485 0.864-0.682 1.558-0.716 1.040-0.051 1.832 0.222 4.712 1.622 1.11 0.54 2.181 1.019 2.38 1.065 0.805 0.186 1.122-0.156 1.351-1.459 0.097-0.551 0.116-1.812 0.142-9.287l0.030-8.65 0.591-0.568c1.269-1.218 2.173-1.308 3.452-0.345l0.585 0.441 0.046 4.354c0.049 4.661 0.099 5.477 0.35 5.682 0.208 0.171 0.384 0.157 1.218-0.094 0.552-0.166 0.868-0.22 1.333-0.224 0.548-0.005 0.655 0.017 1.062 0.219 0.249 0.123 0.61 0.328 0.802 0.454l0.349 0.23 1.527-0.023c1.483-0.022 1.544-0.017 2.113 0.163 0.375 0.119 0.704 0.178 0.914 0.164 0.309-0.020 0.333-0.037 0.42-0.291 0.134-0.388 0.408-1.783 0.775-3.939 0.64-3.765 0.851-4.34 1.755-4.782 0.505-0.247 0.97-0.293 1.527-0.151 0.717 0.184 1.256 0.506 1.479 0.886 0.189 0.322 0.191 0.335 0.186 1.634-0.005 1.432-0.097 2.311-0.776 7.469-0.76 5.768-1.295 9.211-1.597 10.266-0.596 2.084-1.344 3.583-2.603 5.214-0.467 0.604-0.595 0.911-0.714 1.7-0.045 0.298-0.171 0.856-0.28 1.239l-0.198 0.697-13.183 0.036z"></path>
</symbol>
<symbol id="icon-cassette" viewBox="0 0 32 32">
<title>cassette</title>
<path d="M1.347 30.523c-1.29-0.258-1.315-0.457-1.315-10.578 0-10.391-0.013-10.301 1.585-10.601 1.314-0.247 1.576-0.010 2.023 1.805 0.226 0.919 0.579 2.263 0.784 2.986l0.373 1.315 22.86-0.133 0.728-2.875c0.4-1.581 0.769-2.925 0.82-2.987 0.051-0.066 0.507-0.1 1.014-0.085 0.626 0.019 1.064 0.202 1.367 0.577 0.411 0.507 0.446 1.304 0.446 9.996 0 8.926-0.026 9.477-0.478 10.035l-0.478 0.591-14.585 0.029c-8.022 0.019-14.837-0.019-15.145-0.075zM26.51 25.341c1.862-1.784 1.5-4.619-0.738-5.776-1.108-0.574-18.17-0.545-19.386 0.029-2.338 1.11-2.505 4.743-0.28 6.113 0.765 0.471 1.22 0.49 10.222 0.426l9.421-0.066zM11.407 22.82v-1.875h9.5v3.749h-9.5zM6.782 23.945c-1.119-1.119-0.28-3 1.336-3 1.027 0 1.747 0.722 1.747 1.75 0 1.578-1.96 2.373-3.083 1.25zM22.904 23.94c-1.044-1.153-0.249-2.997 1.292-2.997 1.051 0 1.836 0.747 1.836 1.75 0 1.551-2.096 2.387-3.128 1.247zM5.777 12.634c-0.152-0.586-0.381-1.459-0.509-1.94s-0.233-1.018-0.234-1.192c-0.001-0.252 2.3-0.313 11.124-0.303 10.331 0.010 11.125 0.048 11.119 0.442-0.003 0.235-0.207 1.215-0.453 2.178l-0.448 1.75-20.323 0.133z"></path>
</symbol>
</defs>
</svg>
