<!-- Generated by IcoMoon.io -->
<svg version="1.1" xmlns="http://www.w3.org/2000/svg" width="32" height="32" viewBox="0 0 32 32">
<title>cassette</title>
<path d="M1.347 30.523c-1.29-0.258-1.315-0.457-1.315-10.578 0-10.391-0.013-10.301 1.585-10.601 1.314-0.247 1.576-0.010 2.023 1.805 0.226 0.919 0.579 2.263 0.784 2.986l0.373 1.315 22.86-0.133 0.728-2.875c0.4-1.581 0.769-2.925 0.82-2.987 0.051-0.066 0.507-0.1 1.014-0.085 0.626 0.019 1.064 0.202 1.367 0.577 0.411 0.507 0.446 1.304 0.446 9.996 0 8.926-0.026 9.477-0.478 10.035l-0.478 0.591-14.585 0.029c-8.022 0.019-14.837-0.019-15.145-0.075zM26.51 25.341c1.862-1.784 1.5-4.619-0.738-5.776-1.108-0.574-18.17-0.545-19.386 0.029-2.338 1.11-2.505 4.743-0.28 6.113 0.765 0.471 1.22 0.49 10.222 0.426l9.421-0.066zM11.407 22.82v-1.875h9.5v3.749h-9.5zM6.782 23.945c-1.119-1.119-0.28-3 1.336-3 1.027 0 1.747 0.722 1.747 1.75 0 1.578-1.96 2.373-3.083 1.25zM22.904 23.94c-1.044-1.153-0.249-2.997 1.292-2.997 1.051 0 1.836 0.747 1.836 1.75 0 1.551-2.096 2.387-3.128 1.247zM5.777 12.634c-0.152-0.586-0.381-1.459-0.509-1.94s-0.233-1.018-0.234-1.192c-0.001-0.252 2.3-0.313 11.124-0.303 10.331 0.010 11.125 0.048 11.119 0.442-0.003 0.235-0.207 1.215-0.453 2.178l-0.448 1.75-20.323 0.133z"></path>
</svg>
