<!-- Generated by IcoMoon.io -->
<svg version="1.1" xmlns="http://www.w3.org/2000/svg" width="32" height="32" viewBox="0 0 32 32">
<title>FF</title>
<path d="M1.528 31.578c-1.54-0.759-1.528-0.64-1.528-15.555 0-14.982-0.017-14.812 1.568-15.565 0.789-0.374 2.281-0.418 14.414-0.418 15.1 0 14.938-0.017 15.638 1.658 0.506 1.211 0.506 27.437 0 28.648-0.701 1.676-0.533 1.659-15.676 1.652-12.149-0.005-13.661-0.049-14.416-0.421zM12.32 21.142c2.029-1.442 3.74-2.622 3.801-2.622s0.111 1.045 0.111 2.322c0 3.855 0.365 3.849 5.889-0.090 5.017-3.577 5.348-3.87 5.348-4.73s-0.332-1.153-5.348-4.73c-5.524-3.939-5.889-3.944-5.889-0.090 0 1.277-0.050 2.322-0.111 2.322s-1.771-1.18-3.801-2.622c-3.601-2.559-4.415-2.935-5.028-2.322-0.428 0.428-0.428 14.456 0 14.883 0.613 0.613 1.427 0.237 5.028-2.322z"></path>
</svg>
