<!-- Generated by IcoMoon.io -->
<svg version="1.1" xmlns="http://www.w3.org/2000/svg" width="32" height="32" viewBox="0 0 32 32">
<title>ipod</title>
<path d="M20.5 16v-16h-20.5v32h20.5zM8.852 29.174c-4.235-1.098-5.77-6.303-2.792-9.465 2.221-2.36 6.16-2.36 8.381 0 2.933 3.115 1.453 8.337-2.679 9.451-1.469 0.396-1.437 0.396-2.91 0.014zM11.908 26.52c1.185-0.723 1.592-1.467 1.592-2.917 0-3.292-3.917-4.57-5.978-1.949-0.378 0.481-0.522 1.024-0.522 1.971s0.144 1.49 0.522 1.971c1.105 1.405 2.957 1.796 4.386 0.924zM2.75 8.625v-5.375h15v10.75h-15z"></path>
</svg>
