<!-- Generated by IcoMoon.io -->
<svg version="1.1" xmlns="http://www.w3.org/2000/svg" width="32" height="32" viewBox="0 0 32 32">
<title>pause</title>
<path d="M1.528 31.578c-1.54-0.759-1.528-0.64-1.528-15.555 0-14.982-0.017-14.812 1.568-15.565 0.789-0.374 2.281-0.418 14.414-0.418 15.1 0 14.938-0.017 15.638 1.658 0.506 1.211 0.506 27.437 0 28.648-0.701 1.676-0.533 1.659-15.676 1.652-12.149-0.005-13.661-0.049-14.416-0.421zM13.122 23.65l0.613-0.613v-14.030l-0.613-0.613c-0.794-0.794-1.891-0.798-2.807-0.010l-0.701 0.603v14.071l0.701 0.603c0.916 0.788 2.013 0.784 2.807-0.010zM21.649 23.661l0.701-0.603v-14.071l-0.701-0.603c-0.916-0.788-2.013-0.784-2.807 0.010l-0.613 0.613v14.030l0.613 0.613c0.794 0.794 1.891 0.798 2.807 0.010z"></path>
</svg>
