<!-- Generated by IcoMoon.io -->
<svg version="1.1" xmlns="http://www.w3.org/2000/svg" width="32" height="32" viewBox="0 0 32 32">
<title>play</title>
<path d="M1.528 31.578c-1.54-0.759-1.528-0.64-1.528-15.555 0-14.982-0.017-14.812 1.568-15.565 0.789-0.374 2.281-0.418 14.414-0.418 15.1 0 14.938-0.017 15.638 1.658 0.506 1.211 0.506 27.437 0 28.648-0.701 1.676-0.533 1.659-15.676 1.652-12.149-0.005-13.661-0.049-14.416-0.421zM17.274 20.215c2.725-1.786 4.998-3.446 5.082-3.712 0.084-0.264 0.084-0.697 0-0.961-0.148-0.465-9.495-6.779-10.516-7.103-0.285-0.090-0.716-0.006-0.99 0.196-0.462 0.338-0.486 0.707-0.486 7.388s0.024 7.050 0.486 7.388c0.275 0.201 0.706 0.286 0.99 0.196 0.277-0.088 2.722-1.614 5.434-3.391z"></path>
</svg>
