<!-- Generated by IcoMoon.io -->
<svg version="1.1" xmlns="http://www.w3.org/2000/svg" width="32" height="32" viewBox="0 0 32 32">
<title>radio</title>
<path d="M1.578 31.602c-1.454-0.717-1.578-1.354-1.578-8.086 0-4.985 0.069-6.187 0.394-6.871 0.61-1.285 1.601-1.617 4.825-1.617h2.771v-1.767c0-1.62 0.061-1.828 0.73-2.497l0.73-0.73h13.060l0.73 0.73c0.669 0.669 0.73 0.877 0.73 2.497v1.767h2.771c3.224 0 4.215 0.332 4.825 1.617 0.581 1.224 0.581 12.519 0 13.743-0.779 1.641-0.558 1.618-15.623 1.612-11.811-0.005-13.672-0.056-14.363-0.397zM8.95 25.918c0.844-0.844 0.912-1.023 0.912-2.386 0-1.227-0.104-1.585-0.624-2.142-1.335-1.429-2.988-1.753-4.434-0.872-2.145 1.308-2.389 3.959-0.521 5.65 0.818 0.741 1.165 0.842 2.544 0.746 1.002-0.070 1.367-0.241 2.122-0.997zM5.493 24.515c-0.275-0.275-0.499-0.724-0.499-0.999 0-0.643 0.855-1.498 1.498-1.498s1.498 0.855 1.498 1.498c0 0.275-0.225 0.724-0.499 0.999s-0.724 0.499-0.999 0.499c-0.275 0-0.724-0.225-0.999-0.499zM18.823 26.449c0.2-0.318 0.2-0.556 0-0.874-0.225-0.358-0.712-0.45-2.708-0.509-2.512-0.074-3.131 0.109-3.131 0.926 0 0.87 0.533 1.037 3.090 0.964 2.036-0.058 2.523-0.148 2.75-0.507zM27.925 25.918c0.844-0.844 0.912-1.023 0.912-2.386 0-1.227-0.104-1.585-0.624-2.142-1.335-1.429-2.988-1.753-4.434-0.872-2.145 1.308-2.389 3.959-0.521 5.65 0.818 0.741 1.165 0.842 2.544 0.746 1.002-0.070 1.367-0.241 2.122-0.997zM24.468 24.515c-0.275-0.275-0.499-0.724-0.499-0.999s0.225-0.724 0.499-0.999c0.275-0.275 0.724-0.499 0.999-0.499s0.724 0.225 0.999 0.499c0.275 0.275 0.499 0.724 0.499 0.999s-0.225 0.724-0.499 0.999c-0.275 0.275-0.724 0.499-0.999 0.499s-0.724-0.225-0.999-0.499zM18.519 22.603c0.569-0.515 0.589-1.523 0.043-2.126-0.576-0.636-4.431-0.669-5.122-0.043-0.569 0.515-0.589 1.523-0.043 2.126 0.576 0.636 4.431 0.669 5.122 0.043zM20.973 14.028v-0.999h-9.987v1.997h9.987z"></path>
</svg>
