<!-- Generated by IcoMoon.io -->
<svg version="1.1" xmlns="http://www.w3.org/2000/svg" width="32" height="32" viewBox="0 0 32 32">
<title>rewind</title>
<path d="M1.528 31.578c-1.54-0.759-1.528-0.64-1.528-15.555 0-14.982-0.017-14.812 1.568-15.565 0.789-0.374 2.281-0.418 14.414-0.418 15.1 0 14.938-0.017 15.638 1.658 0.506 1.211 0.506 27.437 0 28.648-0.701 1.676-0.533 1.659-15.676 1.652-12.149-0.005-13.661-0.049-14.416-0.421zM16.155 23.452c0.111-0.172 0.258-1.359 0.327-2.639l0.125-2.327 3.66 2.639c3.944 2.844 4.77 3.161 5.212 1.999 0.318-0.838 0.318-13.364 0-14.202-0.442-1.162-1.268-0.846-5.212 1.999l-3.66 2.639-0.125-2.327c-0.139-2.595-0.273-2.951-1.106-2.951-0.75 0-9.626 6.27-10.067 7.11-0.274 0.523-0.274 0.738 0 1.262 0.44 0.841 9.317 7.11 10.067 7.11 0.317 0 0.668-0.14 0.779-0.312z"></path>
</svg>
