<!-- Generated by IcoMoon.io -->
<svg version="1.1" xmlns="http://www.w3.org/2000/svg" width="32" height="32" viewBox="0 0 32 32">
<title>RnR</title>
<path fill="#000" d="M11.331 31.203c-0.29-0.438-0.805-1.275-1.145-1.859-1.504-2.587-2.103-3.11-5.883-5.135-2.116-1.133-3.321-1.885-3.759-2.345-0.729-0.764-0.724-2.056 0.010-2.874 0.436-0.485 0.864-0.682 1.558-0.716 1.040-0.051 1.832 0.222 4.712 1.622 1.11 0.54 2.181 1.019 2.38 1.065 0.805 0.186 1.122-0.156 1.351-1.459 0.097-0.551 0.116-1.812 0.142-9.287l0.030-8.65 0.591-0.568c1.269-1.218 2.173-1.308 3.452-0.345l0.585 0.441 0.046 4.354c0.049 4.661 0.099 5.477 0.35 5.682 0.208 0.171 0.384 0.157 1.218-0.094 0.552-0.166 0.868-0.22 1.333-0.224 0.548-0.005 0.655 0.017 1.062 0.219 0.249 0.123 0.61 0.328 0.802 0.454l0.349 0.23 1.527-0.023c1.483-0.022 1.544-0.017 2.113 0.163 0.375 0.119 0.704 0.178 0.914 0.164 0.309-0.020 0.333-0.037 0.42-0.291 0.134-0.388 0.408-1.783 0.775-3.939 0.64-3.765 0.851-4.34 1.755-4.782 0.505-0.247 0.97-0.293 1.527-0.151 0.717 0.184 1.256 0.506 1.479 0.886 0.189 0.322 0.191 0.335 0.186 1.634-0.005 1.432-0.097 2.311-0.776 7.469-0.76 5.768-1.295 9.211-1.597 10.266-0.596 2.084-1.344 3.583-2.603 5.214-0.467 0.604-0.595 0.911-0.714 1.7-0.045 0.298-0.171 0.856-0.28 1.239l-0.198 0.697-13.183 0.036z"></path>
<path fill="#a0a0a0" d="M15.368 3.496c0.001-0.141 0.014-0.191 0.029-0.111s0.015 0.195-0.001 0.256c-0.016 0.061-0.029-0.004-0.028-0.145z"></path>
</svg>
